<?xml version="1.0" encoding="UTF-8" standalone="no"?>
<!DOCTYPE svg PUBLIC "-//W3C//DTD SVG 1.1//EN" "http://www.w3.org/Graphics/SVG/1.1/DTD/svg11.dtd">
<svg width="100%" height="100%" viewBox="0 0 283 155" version="1.1" xmlns="http://www.w3.org/2000/svg" xmlns:xlink="http://www.w3.org/1999/xlink" xml:space="preserve" xmlns:serif="http://www.serif.com/" style="fill-rule:evenodd;clip-rule:evenodd;stroke-linecap:round;stroke-linejoin:round;stroke-miterlimit:1.5;">
    <g transform="matrix(1,0,0,1,-8.82026,-72.689)">
        <g transform="matrix(1.44227,0,0,1.44227,-141.309,-171.132)">
            <path d="M155.578,196.084L192.2,269.328L118.956,269.328L155.578,196.084Z" style="fill:rgb(96,165,251);"/>
        </g>
        <g transform="matrix(1.44227,0,0,1.44227,-7.4606,-171.132)">
            <path d="M155.578,196.084L192.2,269.328L118.956,269.328L155.578,196.084Z" style="fill:rgb(96,165,251);"/>
        </g>
        <g transform="matrix(-1.44227,-1.76627e-16,1.76627e-16,-1.44227,374.385,471.132)">
            <path d="M155.578,196.084L192.2,269.328L118.956,269.328L155.578,196.084Z" style="fill:rgb(74,222,128);"/>
        </g>
        <g transform="matrix(1.37789,0,0,1.37789,-56.6837,-58.7505)">
            <path d="M54.797,195.36L101.398,102.649L150,200.351L198.602,102.649L245.203,195.36" style="fill:none;stroke:rgb(167,139,251);stroke-width:14.51px;"/>
        </g>
    </g>
</svg>
